<svg xmlns="http://www.w3.org/2000/svg" viewBox="0 0 2322 312"><path fill="#000" fill-rule="evenodd" d="M 1656.500 20.672 C 1653.750 21.493, 1648.350 22.809, 1644.500 23.596 C 1640.650 24.383, 1636.375 25.850, 1635 26.856 C 1633.625 27.861, 1630.848 29.228, 1628.830 29.893 C 1626.811 30.558, 1624.594 31.784, 1623.903 32.617 C 1623.211 33.450, 1621.351 34.801, 1619.770 35.619 C 1614.561 38.313, 1602 53.231, 1602 56.724 C 1602 57.317, 1600.879 60.209, 1599.510 63.151 C 1596.188 70.286, 1595.917 86.017, 1598.999 92.808 C 1600.074 95.177, 1601.425 98.863, 1602 100.998 C 1602.574 103.134, 1604.047 106.100, 1605.272 107.590 C 1609.587 112.839, 1618.103 121, 1619.295 121.028 C 1619.958 121.043, 1622.268 122.393, 1624.428 124.028 C 1626.589 125.663, 1629.072 127, 1629.946 127 C 1630.820 127, 1633.175 128.114, 1635.179 129.476 C 1637.183 130.838, 1640.986 132.437, 1643.629 133.029 C 1646.273 133.621, 1649.814 134.958, 1651.498 135.999 C 1653.182 137.040, 1657.635 138.383, 1661.393 138.983 C 1665.151 139.583, 1669.862 140.907, 1671.863 141.925 C 1673.863 142.943, 1678.874 144.298, 1682.998 144.936 C 1687.122 145.573, 1691.847 146.892, 1693.498 147.866 C 1695.149 148.840, 1698.716 150.195, 1701.425 150.877 C 1704.134 151.559, 1707.656 153.216, 1709.252 154.559 C 1710.848 155.901, 1712.604 157, 1713.155 157 C 1713.706 157, 1715.886 158.855, 1718 161.122 C 1720.952 164.288, 1722.236 166.841, 1723.530 172.122 C 1725.122 178.617, 1725.117 179.401, 1723.454 186.190 C 1721.400 194.569, 1716.650 200.584, 1709.086 204.382 C 1706.564 205.648, 1702.925 207.543, 1701 208.592 C 1697.821 210.325, 1695.207 210.500, 1672.500 210.500 L 1647.500 210.500 1642 207.829 C 1638.975 206.361, 1634.588 204.656, 1632.250 204.041 C 1629.912 203.426, 1628 202.373, 1628 201.701 C 1628 201.029, 1630.422 198.546, 1633.383 196.184 C 1637.554 192.855, 1639.242 190.643, 1640.883 186.355 C 1643.516 179.475, 1643.531 179.932, 1640.395 171.724 C 1638.154 165.861, 1637.008 164.316, 1632.219 160.703 C 1626.890 156.681, 1626.342 156.500, 1619.534 156.500 C 1611.827 156.500, 1609.840 157.469, 1602.298 164.903 C 1595.963 171.148, 1595.549 172.323, 1595.601 183.915 C 1595.633 191.142, 1596.101 195.309, 1597.074 197.051 C 1601.317 204.642, 1602.897 206.826, 1607 210.773 C 1609.475 213.155, 1613.298 216.045, 1615.497 217.197 C 1617.695 218.350, 1619.945 219.869, 1620.497 220.574 C 1621.048 221.279, 1623.525 222.379, 1626 223.019 C 1628.475 223.659, 1631.895 225.037, 1633.601 226.081 C 1635.306 227.125, 1640.256 228.462, 1644.601 229.053 C 1648.945 229.643, 1655.200 230.850, 1658.500 231.734 C 1666.987 234.009, 1692.292 234.048, 1700.500 231.799 C 1703.800 230.895, 1709.709 229.674, 1713.632 229.087 C 1717.691 228.479, 1722.645 226.943, 1725.132 225.521 C 1727.534 224.148, 1730.215 223.019, 1731.089 223.012 C 1734.980 222.983, 1750.904 208.758, 1753.506 202.987 C 1754.495 200.794, 1755.637 199, 1756.045 199 C 1758.004 199, 1760.952 183.764, 1760.979 173.500 C 1761.002 164.915, 1758.734 152.488, 1756.726 150.196 C 1755.910 149.263, 1754.443 146.925, 1753.469 145 C 1750.157 138.461, 1740.493 129.883, 1732 125.944 C 1729.525 124.796, 1726.825 123.256, 1726 122.522 C 1725.175 121.787, 1722.475 120.653, 1720 120.002 C 1717.525 119.350, 1714.150 117.997, 1712.500 116.995 C 1710.850 115.993, 1706.890 114.695, 1703.700 114.111 C 1700.510 113.527, 1695.893 112.162, 1693.440 111.077 C 1690.987 109.991, 1685.680 108.645, 1681.648 108.084 C 1677.615 107.523, 1672.319 106.208, 1669.878 105.162 C 1667.438 104.116, 1663.040 102.745, 1660.105 102.116 C 1657.170 101.487, 1653.583 100.156, 1652.134 99.160 C 1650.685 98.164, 1648.060 96.775, 1646.300 96.074 C 1644.540 95.373, 1640.868 92.439, 1638.141 89.556 C 1633.780 84.944, 1633.098 83.633, 1632.476 78.657 C 1631.225 68.640, 1632.566 62.716, 1637.441 56.732 C 1639.805 53.830, 1643.485 50.570, 1645.619 49.488 C 1647.754 48.406, 1650.496 46.666, 1651.713 45.621 C 1655.649 42.241, 1675.571 40.405, 1692.500 41.862 C 1704.845 42.924, 1707.245 43.438, 1712.799 46.208 C 1716.263 47.935, 1719.339 49.740, 1719.635 50.218 C 1720.511 51.635, 1718.083 53.823, 1714.845 54.534 C 1712.309 55.091, 1711.283 56.333, 1708.414 62.320 C 1706.536 66.238, 1705 70.701, 1705 72.237 C 1705 76.176, 1710.242 84.946, 1714.720 88.500 C 1718.356 91.386, 1718.885 91.500, 1728.596 91.500 C 1740.893 91.500, 1742.802 90.633, 1748.372 82.516 L 1752.500 76.500 1752.500 65.500 C 1752.500 54.637, 1752.457 54.433, 1749.019 49.119 C 1744.979 42.874, 1739.826 37.479, 1736.023 35.512 C 1734.555 34.753, 1732.794 33.456, 1732.108 32.630 C 1731.423 31.804, 1729.430 30.831, 1727.681 30.466 C 1725.931 30.102, 1722.652 28.742, 1720.394 27.444 C 1718.136 26.146, 1713.411 24.620, 1709.894 24.053 C 1706.377 23.486, 1700.351 22.117, 1696.503 21.011 C 1687.702 18.481, 1664.495 18.285, 1656.500 20.672 M 18.607 25.582 C 17.501 28.465, 17.951 41.551, 19.200 42.800 C 20.008 43.608, 24.565 44, 33.143 44 C 45.178 44, 45.973 44.124, 47.443 46.223 C 49.758 49.527, 49.814 203.393, 47.502 206.694 C 46.137 208.642, 44.929 208.862, 33.919 209.166 C 19.531 209.564, 19 209.936, 19 219.634 C 19 229.549, 16.273 229, 65.523 229 C 96.916 229, 107.905 228.695, 108.800 227.800 C 110.454 226.146, 110.371 212.890, 108.693 210.594 C 107.542 209.021, 105.802 208.822, 94.225 208.935 C 82.231 209.053, 80.884 208.884, 79.032 207.032 C 77.028 205.028, 77 204.038, 77 134.582 C 77 95.852, 77.273 63.452, 77.607 62.582 C 79.191 58.454, 83.252 62.525, 84.474 69.466 C 84.858 71.648, 86.016 74.618, 87.048 76.068 C 88.081 77.518, 89.386 80.760, 89.949 83.274 C 90.513 85.788, 92.105 89.972, 93.487 92.571 C 94.869 95.171, 96 98.068, 96 99.008 C 96 99.949, 97.350 103.248, 99 106.340 C 100.650 109.432, 102 112.804, 102 113.832 C 102 114.861, 103.131 117.829, 104.513 120.429 C 105.895 123.028, 107.479 127.175, 108.032 129.644 C 108.586 132.113, 109.914 135.340, 110.985 136.816 C 112.055 138.292, 113.413 141.704, 114.003 144.398 C 114.592 147.092, 115.941 150.513, 117 152 C 118.059 153.487, 119.409 156.862, 120 159.500 C 120.591 162.138, 121.941 165.513, 123 167 C 124.059 168.487, 125.395 171.801, 125.969 174.364 C 126.544 176.927, 128.124 181.156, 129.481 183.762 C 130.837 186.368, 132.174 189.663, 132.451 191.084 C 132.728 192.505, 134.202 195.270, 135.727 197.229 C 137.252 199.187, 138.950 201.527, 139.500 202.429 C 140.050 203.331, 142.156 204.333, 144.180 204.654 C 147.556 205.191, 148.193 204.878, 151.898 200.869 C 154.745 197.789, 156.249 195.046, 156.996 191.574 C 157.578 188.865, 158.943 185.211, 160.028 183.454 C 161.114 181.697, 162.447 177.915, 162.991 175.049 C 163.534 172.183, 164.827 168.637, 165.864 167.169 C 166.901 165.701, 168.239 162.192, 168.838 159.372 C 169.437 156.552, 171.068 152.097, 172.463 149.473 C 173.858 146.849, 175 143.720, 175 142.521 C 175 141.321, 176.105 138.156, 177.456 135.487 C 178.807 132.819, 180.394 128.389, 180.983 125.642 C 181.572 122.895, 182.943 119.211, 184.028 117.454 C 185.114 115.697, 186.447 111.915, 186.991 109.049 C 187.534 106.183, 188.827 102.637, 189.864 101.169 C 190.901 99.701, 192.268 96.058, 192.902 93.074 C 193.536 90.090, 194.897 86.265, 195.926 84.574 C 196.955 82.883, 198.323 78.922, 198.965 75.771 C 199.864 71.362, 200.787 69.575, 202.971 68.021 C 204.532 66.909, 206.077 66, 206.404 66 C 206.732 66, 207 97.189, 207 135.309 C 207 193.580, 206.774 204.927, 205.581 206.559 C 204.351 208.242, 202.543 208.567, 191.998 209 C 177.531 209.595, 177 209.971, 177 219.634 C 177 229.578, 173.999 229, 225.651 229 C 276.783 229, 273 229.792, 273 219.084 C 273 209.291, 272.518 209, 256.294 209 C 245.377 209, 243.021 208.730, 241.872 207.347 C 239.907 204.979, 239.337 50.806, 241.280 47 C 242.529 44.553, 242.828 44.494, 255.463 44.219 C 262.888 44.057, 268.929 43.474, 269.685 42.846 C 271.404 41.420, 271.499 26.899, 269.800 25.200 C 268.029 23.429, 194.675 23.482, 193.203 25.256 C 192.630 25.946, 191.825 27.859, 191.414 29.506 C 191.003 31.153, 189.617 34.480, 188.333 36.899 C 187.050 39.318, 185.998 42.468, 185.996 43.899 C 185.994 45.330, 184.646 49.200, 183 52.500 C 181.354 55.800, 180.006 59.670, 180.004 61.101 C 180.002 62.532, 178.929 65.717, 177.620 68.179 C 176.311 70.641, 174.724 75.062, 174.093 78.003 C 173.462 80.945, 172.107 84.735, 171.082 86.426 C 170.057 88.117, 168.701 91.968, 168.069 94.985 C 167.437 98.002, 166.088 101.880, 165.071 103.604 C 164.054 105.328, 162.704 109.153, 162.071 112.104 C 161.438 115.055, 160.088 118.880, 159.071 120.604 C 158.054 122.328, 156.725 126.053, 156.119 128.882 C 154.998 134.107, 149.846 145.359, 148.073 146.455 C 146.755 147.270, 145.414 144.415, 144.593 139.046 C 144.218 136.597, 143.055 133.207, 142.009 131.514 C 140.962 129.821, 139.615 126.246, 139.016 123.570 C 138.416 120.893, 137.037 117.457, 135.952 115.933 C 134.867 114.409, 133.542 110.857, 133.008 108.040 C 132.473 105.223, 130.903 100.984, 129.518 98.621 C 128.133 96.258, 127 93.193, 127 91.811 C 127 90.429, 125.869 87.171, 124.487 84.571 C 123.105 81.972, 121.513 77.788, 120.949 75.274 C 120.386 72.760, 119.037 69.457, 117.952 67.933 C 116.867 66.409, 115.564 62.975, 115.057 60.302 C 114.551 57.630, 112.986 53.431, 111.580 50.972 C 110.174 48.512, 109.005 45.375, 108.981 44 C 108.957 42.625, 107.601 38.811, 105.969 35.525 C 104.336 32.239, 103 28.842, 103 27.975 C 103 24.105, 101.862 24, 59.907 24 C 23.723 24, 19.147 24.175, 18.607 25.582 M 451.498 26.362 C 449.624 29.223, 450.442 39.292, 452.701 41.167 C 453.530 41.855, 459.236 42.592, 466.314 42.926 L 478.500 43.500 478.756 126.123 C 478.986 200.412, 478.852 208.878, 477.431 210.057 C 476.453 210.869, 471.703 211.584, 464.974 211.934 C 458.796 212.256, 453.595 213.002, 452.935 213.663 C 450.727 215.874, 449.833 224.097, 451.521 226.672 L 453.046 229 490.458 229 C 512.065 229, 528.942 228.592, 530.407 228.035 C 533.562 226.836, 534.558 223.221, 533.019 218.556 C 531.290 213.320, 528.736 212, 520.334 212 C 510.090 212, 510 211.820, 510 191.343 C 510 182.426, 510.412 174.088, 510.915 172.815 C 511.419 171.542, 513.925 168.925, 516.483 167 C 519.042 165.075, 522.568 162.329, 524.318 160.897 C 526.068 159.466, 528.175 158.064, 529 157.782 C 531.191 157.034, 534 158.786, 534 160.900 C 534 161.907, 535.013 163.998, 536.250 165.547 C 538.539 168.412, 541.113 172.919, 545.078 181 C 546.292 183.475, 548.346 186.772, 549.643 188.327 C 550.939 189.881, 552 191.732, 552 192.439 C 552 193.146, 553.350 195.424, 555 197.500 C 556.650 199.576, 558 201.839, 558 202.529 C 558 203.759, 560.746 207.525, 568.264 216.607 C 579.067 229.657, 598.122 234.920, 616.904 230.043 C 620.976 228.986, 624.709 227.531, 625.199 226.810 C 626.257 225.255, 625.253 212.341, 623.874 209.764 C 623.014 208.157, 621.932 208.034, 613.706 208.608 L 604.500 209.250 597.837 205.581 C 591.208 201.931, 586.678 197.616, 580 188.593 C 578.075 185.992, 575.375 182.431, 574 180.679 C 571.420 177.391, 570.175 175.548, 567.221 170.640 C 566.275 169.067, 564.491 166.367, 563.258 164.640 C 562.025 162.913, 560.354 160.092, 559.545 158.371 C 558.736 156.650, 556.889 153.833, 555.441 152.112 C 553.992 150.391, 552.576 147.258, 552.293 145.150 C 551.817 141.597, 552.126 140.995, 556.528 136.909 C 559.140 134.484, 566.799 127.100, 573.549 120.500 C 580.299 113.900, 588.225 106.364, 591.161 103.753 L 596.500 99.006 606.300 99.003 C 619.671 98.999, 623 97.202, 623 89.990 C 623 86.842, 620.955 84.314, 617.280 82.916 C 615.954 82.412, 598.785 82, 579.126 82 C 537.707 82, 539.500 81.615, 539.500 90.500 C 539.500 97.993, 540.885 99, 551.191 99 C 555.977 99, 559 99.406, 559 100.050 C 559 101.811, 556.087 106.851, 554.579 107.700 C 553.285 108.428, 549.494 111.847, 526.035 133.435 C 521.891 137.249, 517.518 141.524, 516.317 142.935 C 514.528 145.037, 513.807 145.300, 512.317 144.391 C 510.599 143.343, 510.486 140.100, 510.249 84.891 C 510.019 31.409, 509.855 26.395, 508.308 25.250 C 507.055 24.323, 499.693 24, 479.832 24 L 453.046 24 451.498 26.362 M 850.223 25.557 C 848.329 26.883, 848 28.038, 848 33.366 C 848 42.930, 848.632 43.403, 862.212 44 C 873.054 44.477, 873.756 44.641, 877.160 47.500 C 879.125 49.150, 881.259 52.133, 881.904 54.129 C 882.548 56.125, 883.941 58.542, 885 59.500 C 886.059 60.458, 887.449 62.875, 888.089 64.871 C 888.729 66.867, 889.983 69.333, 890.876 70.350 C 892.539 72.245, 894.986 76.642, 899.329 85.540 C 900.682 88.312, 902.488 91.161, 903.343 91.870 C 904.198 92.579, 905.436 94.811, 906.094 96.830 C 906.752 98.848, 908.350 101.772, 909.645 103.327 C 910.940 104.881, 912 106.714, 912 107.399 C 912 108.083, 913.337 110.411, 914.972 112.572 C 916.607 114.732, 917.957 117.227, 917.972 118.115 C 917.987 119.003, 919.013 120.998, 920.250 122.547 C 922.538 125.411, 925.110 129.913, 929.078 138 C 930.293 140.475, 932.122 143.573, 933.143 144.885 C 934.857 147.087, 935 149.559, 935 177.076 C 935 199.823, 934.704 207.074, 933.750 207.691 C 933.063 208.136, 926.051 208.725, 918.168 209 C 901.253 209.590, 901 209.747, 901 219.634 C 901 229.595, 897.817 229, 951.068 229 C 1003.958 229, 1000 229.826, 1000 218.794 C 1000 209.860, 999.606 209.620, 983.869 208.969 C 975.472 208.621, 970.599 207.999, 969.769 207.168 C 968.803 206.202, 968.500 199.047, 968.500 177.174 C 968.500 148.900, 968.535 148.405, 970.750 145.590 C 971.987 144.017, 973 142.178, 973 141.503 C 973 140.827, 974.350 138.576, 976 136.500 C 977.650 134.424, 979 131.972, 979 131.051 C 979 130.130, 979.927 128.382, 981.061 127.165 C 982.194 125.948, 983.821 123.280, 984.675 121.235 C 985.530 119.190, 987.302 116.241, 988.614 114.682 C 989.926 113.122, 991 111.267, 991 110.558 C 991 109.850, 991.888 108.141, 992.974 106.761 C 995.307 103.795, 999.090 97.271, 1002.115 91 C 1003.309 88.525, 1005.346 85.228, 1006.643 83.673 C 1007.939 82.119, 1009 80.241, 1009 79.500 C 1009 78.759, 1010.063 76.881, 1011.363 75.327 C 1012.663 73.772, 1014.065 71.375, 1014.479 70 C 1014.893 68.625, 1016.264 66.121, 1017.525 64.436 C 1018.786 62.752, 1020.537 59.827, 1021.417 57.936 C 1023.100 54.318, 1026.800 48.695, 1029.435 45.750 C 1030.733 44.298, 1032.752 44, 1041.277 44 C 1055.142 44, 1056 43.387, 1056 33.478 C 1056 27.178, 1055.711 25.916, 1054.066 25.035 C 1052.826 24.372, 1037.919 24, 1012.541 24 L 972.950 24 972.060 26.343 C 970.836 29.560, 971.412 40.586, 972.896 42.375 C 973.802 43.466, 977.103 43.919, 985.973 44.167 C 992.499 44.350, 998.090 44.752, 998.396 45.060 C 999.223 45.891, 995.120 56.191, 993.040 58.500 C 992.050 59.600, 990.256 62.525, 989.055 65 C 985.070 73.208, 982.519 77.778, 980.876 79.650 C 979.983 80.667, 978.729 83.133, 978.089 85.129 C 977.449 87.125, 976.059 89.542, 975 90.500 C 973.941 91.458, 972.553 93.875, 971.914 95.871 C 971.276 97.867, 969.982 100.400, 969.038 101.500 C 968.095 102.600, 966.291 105.525, 965.029 108 C 963.767 110.475, 961.652 114.638, 960.328 117.250 C 958.662 120.539, 957.305 122, 955.916 122 C 953.370 122, 949 117.692, 949 115.183 C 949 114.134, 947.650 111.576, 946 109.500 C 944.350 107.424, 943 104.967, 943 104.041 C 943 103.114, 941.663 100.589, 940.028 98.428 C 938.393 96.268, 937.043 93.773, 937.028 92.885 C 937.013 91.997, 936.104 90.131, 935.009 88.738 C 933.914 87.346, 932.081 84.248, 930.937 81.853 C 929.793 79.459, 927.333 74.800, 925.470 71.500 C 923.608 68.200, 920.987 63.232, 919.647 60.460 C 918.307 57.688, 916.517 54.844, 915.670 54.141 C 913.511 52.349, 912.549 47.248, 914.034 45.459 C 914.963 44.340, 917.843 44, 926.400 44 C 941.248 44, 942 43.493, 942 33.478 C 942 27.178, 941.711 25.916, 940.066 25.035 C 938.819 24.368, 922.909 24, 895.288 24 C 858.130 24, 852.150 24.207, 850.223 25.557 M 2068.571 25.571 C 2066.242 27.901, 2066.458 37.109, 2068.913 40.139 C 2070.668 42.306, 2071.634 42.514, 2080.663 42.667 C 2094.016 42.893, 2094.321 42.917, 2095.785 43.846 C 2096.814 44.499, 2097.066 60.928, 2097.054 126.526 C 2097.039 199.175, 2096.863 208.566, 2095.485 209.945 C 2094.296 211.137, 2091.312 211.551, 2082.716 211.718 C 2072.025 211.925, 2071.395 212.057, 2069.250 214.524 C 2067.669 216.342, 2067 218.386, 2067 221.401 C 2067 229.315, 2065.124 229, 2112.329 229 C 2152.667 229, 2154.064 228.936, 2156 227 C 2158.412 224.588, 2158.509 222.313, 2156.422 217.097 C 2154.438 212.138, 2153.483 211.782, 2142.639 211.948 C 2136.101 212.048, 2133.151 211.674, 2131.389 210.519 L 2129 208.954 2129 118.034 L 2129 27.113 2126.777 25.557 C 2123.435 23.216, 2070.914 23.229, 2068.571 25.571 M 1814.268 25.656 C 1813.590 25.931, 1812.537 28.033, 1811.928 30.327 C 1811.319 32.622, 1810.002 35.400, 1809 36.500 C 1807.998 37.600, 1806.648 40.525, 1806 43 C 1805.352 45.475, 1804.005 48.400, 1803.006 49.500 C 1802.008 50.600, 1800.733 53.194, 1800.172 55.265 C 1799.612 57.335, 1797.994 60.407, 1796.577 62.091 C 1795.159 63.776, 1794 65.786, 1794 66.559 C 1794 68.068, 1791.112 71.604, 1784.110 78.666 C 1779.762 83.051, 1778.168 84.153, 1769.163 89 C 1764.013 91.772, 1762.943 94.175, 1765.567 97.074 C 1767.070 98.735, 1768.711 99, 1777.500 99 C 1792.828 99, 1791.380 93.862, 1792.112 150.853 C 1792.725 198.605, 1793.386 207.670, 1796.488 210.878 C 1797.350 211.770, 1799.057 214.050, 1800.281 215.945 C 1806.705 225.893, 1826.836 234.885, 1839.881 233.633 C 1854.330 232.247, 1869.042 223.942, 1872.732 215.091 C 1873.555 213.116, 1875.121 210.245, 1876.211 208.710 C 1878.514 205.469, 1879.907 193.103, 1879.964 175.405 C 1879.995 165.898, 1879.738 164.073, 1878.171 162.655 C 1875.891 160.591, 1868.909 160.478, 1865.108 162.444 L 1862.314 163.889 1861.630 179.194 C 1860.763 198.574, 1860.308 200.670, 1855.803 206.069 L 1852.107 210.500 1842.122 210.500 C 1832.433 210.500, 1832.045 210.413, 1829.062 207.557 C 1827.371 205.938, 1825.462 203.013, 1824.820 201.057 C 1823.590 197.307, 1822.316 108.861, 1823.429 104.428 C 1824.756 99.140, 1825.425 99, 1849.397 99 C 1871.366 99, 1871.679 98.970, 1873.826 96.686 C 1875.346 95.068, 1876 93.107, 1876 90.171 C 1876 86.516, 1875.578 85.707, 1872.750 83.938 C 1869.734 82.051, 1868.026 81.916, 1849 82.058 C 1837.725 82.141, 1827.757 82.163, 1826.848 82.105 C 1823.710 81.906, 1823 76.333, 1823 51.907 C 1823 28.453, 1822.968 28.091, 1820.777 26.557 C 1818.551 24.997, 1816.573 24.724, 1814.268 25.656 M 334.500 78.914 C 332.300 79.351, 328.475 80.664, 326 81.832 C 323.525 83, 320.549 83.966, 319.388 83.978 C 318.226 83.990, 315.576 85.350, 313.500 87 C 311.424 88.650, 309.402 90, 309.008 90 C 308.386 90, 305.130 93.153, 297.046 101.583 C 294.990 103.728, 291.036 114.875, 291.013 118.593 C 290.984 123.332, 294.884 131.867, 298.665 135.336 C 305.777 141.864, 319.259 141.383, 325.680 134.373 C 330.541 129.066, 331 127.921, 331 121.101 C 331 115.828, 330.624 114.641, 328.005 111.658 C 326.357 109.782, 323.657 107.686, 322.005 107.002 C 319.985 106.165, 319.005 105.059, 319.015 103.629 C 319.050 98.850, 321.773 97.499, 334.541 95.927 C 349.042 94.142, 357.120 95.641, 362.823 101.176 C 365.120 103.406, 367 105.671, 367 106.211 C 367 106.750, 367.854 108.391, 368.898 109.857 C 371.391 113.359, 372.493 122.455, 371.066 127.756 C 369.878 132.167, 359.431 144, 356.724 144 C 355.941 144, 353.321 145.342, 350.900 146.982 C 348.480 148.622, 345.780 149.972, 344.899 149.982 C 344.018 149.992, 341.224 151.103, 338.689 152.451 C 336.154 153.799, 332.252 155.394, 330.019 155.995 C 327.786 156.596, 324.330 158.193, 322.340 159.544 C 320.349 160.895, 318.055 162, 317.240 162 C 315.798 162, 310.219 165.196, 303.713 169.749 C 301.946 170.986, 299.286 172.781, 297.802 173.737 C 296.318 174.694, 294.621 176.382, 294.030 177.489 C 293.440 178.595, 291.886 180.964, 290.576 182.753 C 287.659 186.738, 286.505 195.222, 287.473 205.558 C 288.288 214.253, 290.052 217.197, 299.652 225.887 C 301.385 227.457, 304.520 229.063, 306.617 229.456 C 308.715 229.850, 311.796 230.887, 313.465 231.762 C 317.685 233.974, 331.432 233.996, 335.535 231.797 C 337.204 230.903, 340.354 229.864, 342.535 229.488 C 344.716 229.112, 348.374 227.498, 350.663 225.902 C 352.953 224.306, 355.203 222.991, 355.663 222.980 C 356.484 222.960, 362.938 216.741, 368.946 210.180 C 373.078 205.668, 376.152 206.093, 377.452 211.356 C 378.127 214.089, 380.311 217.104, 384.952 221.710 C 390.769 227.484, 392.449 228.528, 400 231.062 C 411.715 234.994, 414.631 234.883, 428.500 229.974 C 435.199 227.603, 442.168 221.607, 444.043 216.600 C 444.681 214.895, 446.340 210.840, 447.730 207.590 C 449.947 202.403, 450.318 199.827, 450.765 186.548 C 451.362 168.759, 451.045 168, 442.994 168 C 433.130 168, 433.009 168.172, 432.940 182.225 C 432.860 198.848, 432.002 203.460, 428.302 207.159 C 422.429 213.033, 412.227 212.353, 406.904 205.734 L 403.500 201.500 402.953 158 L 402.406 114.500 399.713 109 C 398.232 105.975, 397.015 102.731, 397.010 101.791 C 396.988 98.009, 382.028 84, 378.011 84 C 377.069 84, 374.093 82.815, 371.399 81.368 C 366.885 78.942, 365.400 78.711, 352.500 78.428 C 344.800 78.258, 336.700 78.477, 334.500 78.914 M 690 78.874 C 688.075 79.297, 685.150 80.348, 683.500 81.211 C 681.850 82.074, 678.815 83.242, 676.756 83.807 C 674.697 84.373, 670.927 86.110, 668.380 87.668 C 662.741 91.115, 650.423 103.253, 648.307 107.448 C 647.459 109.126, 645.974 111.400, 645.006 112.500 C 644.038 113.600, 642.686 116.300, 642.002 118.500 C 641.317 120.700, 639.896 123.929, 638.843 125.675 C 637.751 127.488, 636.539 132.207, 636.020 136.675 C 635.520 140.979, 634.796 147.112, 634.411 150.304 C 633.229 160.115, 635.738 179.465, 639.115 186.579 C 640.702 189.922, 642 193.410, 642 194.329 C 642 195.248, 642.797 196.797, 643.770 197.770 C 644.744 198.744, 646.765 201.630, 648.261 204.182 C 651.514 209.734, 663.101 220.600, 668 222.695 C 669.925 223.518, 672.423 225.043, 673.552 226.084 C 674.681 227.125, 677.831 228.405, 680.552 228.929 C 683.273 229.453, 687.403 230.560, 689.728 231.389 C 699.418 234.843, 707.656 234.516, 725 229.991 C 739.095 226.314, 749.177 218.816, 759.500 204.333 C 761.922 200.934, 766.023 190.691, 766.704 186.338 C 767.342 182.255, 764.583 180.321, 756.816 179.408 L 751.171 178.745 749.033 182.622 C 740.621 197.883, 736.749 201.605, 722.049 208.562 C 719.292 209.866, 716.142 210.125, 706.379 209.847 C 695.575 209.540, 693.890 209.253, 691.830 207.365 C 690.548 206.191, 688.523 204.934, 687.328 204.572 C 683.978 203.558, 673.009 190.182, 672.990 187.089 C 672.985 186.215, 671.815 183.025, 670.390 180 C 667.278 173.395, 665.837 159.106, 668.017 156.479 C 669.163 155.099, 674.966 154.933, 717.875 155.049 L 766.436 155.180 768.218 152.979 C 770.248 150.473, 770.325 148.925, 769.033 136.647 C 768.384 130.475, 767.329 126.316, 765.551 122.915 C 764.148 120.232, 763 117.196, 763 116.168 C 763 115.141, 761.650 112.436, 760 110.159 C 758.350 107.881, 757 105.641, 757 105.181 C 757 104.143, 742.937 90, 741.904 90 C 741.491 90, 739.869 88.919, 738.299 87.599 C 736.730 86.278, 733.435 84.656, 730.978 83.994 C 728.521 83.333, 724.709 81.866, 722.506 80.734 C 719.214 79.043, 716.273 78.626, 706 78.391 C 699.125 78.234, 691.925 78.451, 690 78.874 M 1122.500 78.870 C 1120.300 79.284, 1117.150 80.335, 1115.500 81.206 C 1113.850 82.078, 1110.475 83.328, 1108 83.985 C 1105.525 84.641, 1102.600 85.986, 1101.500 86.972 C 1100.400 87.959, 1098.131 89.457, 1096.458 90.301 C 1092.998 92.047, 1080 104.577, 1080 106.166 C 1080 106.741, 1078.875 108.548, 1077.500 110.183 C 1076.125 111.817, 1074.721 114.357, 1074.381 115.827 C 1074.042 117.297, 1072.682 120.397, 1071.360 122.716 C 1069.594 125.813, 1068.566 130.059, 1067.486 138.716 C 1063.556 170.218, 1068.513 190.983, 1084.500 210.001 C 1089.043 215.405, 1096.816 221.607, 1101.496 223.563 C 1103.236 224.290, 1105.231 225.574, 1105.930 226.416 C 1106.629 227.258, 1108.843 228.221, 1110.850 228.556 C 1112.858 228.891, 1117.425 230.132, 1121 231.314 C 1125.906 232.936, 1129.952 233.463, 1137.500 233.463 C 1145.048 233.463, 1149.094 232.936, 1154 231.314 C 1157.575 230.132, 1162.142 228.891, 1164.150 228.556 C 1166.157 228.221, 1168.400 227.223, 1169.135 226.337 C 1169.870 225.451, 1172.278 223.934, 1174.486 222.964 C 1179.419 220.798, 1192.485 208.924, 1194.648 204.641 C 1195.520 202.913, 1197.026 200.600, 1197.994 199.500 C 1198.962 198.400, 1200.289 195.700, 1200.944 193.500 C 1201.598 191.300, 1203.033 187.812, 1204.131 185.750 C 1205.383 183.399, 1206.514 178.361, 1207.161 172.250 C 1208.404 160.520, 1207.412 135.083, 1205.515 130.063 C 1200.874 117.779, 1199.256 114.109, 1197.250 111.320 C 1196.013 109.599, 1195 107.744, 1195 107.197 C 1195 105.603, 1179.227 90, 1177.616 90 C 1176.812 90, 1174.848 88.901, 1173.252 87.559 C 1171.656 86.216, 1168.134 84.566, 1165.425 83.893 C 1162.716 83.220, 1158.789 81.785, 1156.697 80.706 C 1153.603 79.109, 1150.432 78.684, 1139.697 78.430 C 1132.439 78.258, 1124.700 78.456, 1122.500 78.870 M 1484 78.897 C 1474.398 82.126, 1460.373 94.419, 1457.929 101.750 C 1456.777 105.205, 1454.613 106.040, 1453.607 103.418 C 1453.273 102.548, 1453 98.565, 1453 94.567 C 1453 90.569, 1452.514 85.904, 1451.920 84.200 C 1450.158 79.147, 1447.422 78.830, 1422.651 80.807 C 1398.040 82.771, 1398 82.787, 1398 90.691 C 1398 97.718, 1400.075 99, 1411.443 99 C 1420.068 99, 1421.022 99.193, 1422.443 101.223 C 1423.804 103.166, 1424 110.068, 1424 156.166 L 1424 208.887 1421.777 210.443 C 1420.159 211.577, 1417.068 212, 1410.400 212 C 1403.791 212, 1400.923 212.388, 1400.088 213.394 C 1398.341 215.500, 1397.570 224.329, 1398.915 226.841 C 1400.070 229, 1400.080 229, 1441.313 229 C 1488.787 229, 1487.621 229.198, 1486.730 221.301 C 1485.847 213.459, 1483.720 212.223, 1470.437 211.834 C 1461.562 211.573, 1458.708 211.141, 1457.433 209.864 C 1455.981 208.410, 1455.816 204.538, 1455.946 175.076 C 1456.026 156.843, 1456.296 141.379, 1456.546 140.712 C 1456.795 140.045, 1457.654 134.800, 1458.455 129.056 C 1459.395 122.310, 1460.573 117.708, 1461.783 116.056 C 1462.813 114.650, 1464.194 111.925, 1464.852 110 C 1466.335 105.662, 1475.497 97, 1478.602 97 C 1481.305 97, 1482.576 100.056, 1481.055 102.896 C 1479.592 105.631, 1479.735 108.866, 1481.555 114.206 C 1482.817 117.910, 1484.087 119.383, 1488.305 122.031 C 1495.870 126.782, 1501.134 127.070, 1508.140 123.116 C 1517.635 117.758, 1519.922 113.772, 1519.976 102.493 C 1520.024 92.506, 1517.763 88.641, 1508.116 82.214 C 1503.199 78.938, 1502.028 78.603, 1494.616 78.342 C 1490.152 78.185, 1485.375 78.434, 1484 78.897 M 2224.500 78.872 C 2222.300 79.288, 2218.605 80.612, 2216.290 81.814 C 2213.974 83.017, 2211.224 84, 2210.177 84 C 2209.131 84, 2206.576 85.350, 2204.500 87 C 2202.424 88.650, 2200.334 90, 2199.856 90 C 2198.364 90, 2185.367 103.340, 2183.708 106.573 C 2182.841 108.263, 2181.450 110.211, 2180.617 110.903 C 2179.784 111.594, 2178.558 113.811, 2177.893 115.830 C 2177.228 117.848, 2175.847 120.634, 2174.823 122.021 C 2173.800 123.407, 2172.499 127.457, 2171.932 131.021 C 2171.365 134.584, 2170.249 139.719, 2169.451 142.432 C 2167.765 148.163, 2167.564 163.665, 2169.101 169.500 C 2169.680 171.700, 2170.801 176.650, 2171.591 180.500 C 2172.381 184.350, 2173.850 188.625, 2174.856 190 C 2175.861 191.375, 2177.228 194.152, 2177.893 196.170 C 2178.558 198.189, 2179.784 200.406, 2180.617 201.097 C 2181.450 201.789, 2182.845 203.737, 2183.716 205.427 C 2186.065 209.984, 2198.973 221.828, 2203 223.122 C 2204.925 223.740, 2207.459 225.119, 2208.632 226.186 C 2209.804 227.253, 2213.629 228.767, 2217.132 229.551 C 2220.634 230.334, 2225.961 231.656, 2228.968 232.488 C 2235.786 234.374, 2240.755 234.371, 2248.750 232.479 C 2252.188 231.666, 2257.739 230.359, 2261.086 229.576 C 2264.433 228.793, 2268.845 226.993, 2270.890 225.576 C 2272.935 224.159, 2275.131 223, 2275.770 223 C 2278.027 223, 2293 207.883, 2293 205.604 C 2293 204.873, 2294.264 202.685, 2295.808 200.742 C 2297.719 198.336, 2299.018 195.025, 2299.876 190.369 C 2301.081 183.832, 2301.043 183.453, 2299.025 181.819 C 2296.288 179.603, 2288.836 178.482, 2286.204 179.891 C 2283.920 181.113, 2280 186.984, 2280 189.181 C 2280 191.248, 2268.242 202.595, 2263.500 205.105 C 2261.300 206.269, 2258.255 207.883, 2256.734 208.692 C 2254.620 209.816, 2251.083 210.084, 2241.734 209.831 C 2230.192 209.519, 2229.220 209.330, 2224.558 206.500 C 2218.090 202.575, 2210.307 194.404, 2208.845 190.005 C 2208.206 188.083, 2206.686 184.634, 2205.467 182.342 C 2203.860 179.319, 2203.052 175.522, 2202.527 168.524 C 2201.403 153.520, 2196.181 154.893, 2253.803 155.048 C 2289.043 155.144, 2302.531 154.867, 2303.360 154.032 C 2305.427 151.953, 2304.673 134.138, 2302.322 129.500 C 2301.207 127.300, 2299.776 123.379, 2299.142 120.787 C 2298.508 118.195, 2296.867 114.419, 2295.495 112.397 C 2294.123 110.375, 2293 108.202, 2293 107.569 C 2293 106.284, 2288.817 101.386, 2280.773 93.250 C 2279.006 91.463, 2277.096 89.987, 2276.530 89.972 C 2275.963 89.957, 2273.732 88.607, 2271.572 86.972 C 2269.411 85.337, 2266.936 83.996, 2266.072 83.990 C 2265.207 83.985, 2262.025 82.814, 2259 81.389 C 2254.182 79.119, 2251.950 78.756, 2241 78.457 C 2234.125 78.269, 2226.700 78.456, 2224.500 78.872 M 1219.573 83.570 C 1216.084 87.058, 1216.425 96.087, 1220.120 98.064 C 1221.296 98.694, 1225.886 99.017, 1230.999 98.832 C 1235.864 98.656, 1240.217 98.883, 1240.672 99.337 C 1241.128 99.792, 1241.732 121.614, 1242.014 147.832 L 1242.529 195.500 1245.264 201.720 C 1246.769 205.141, 1248 208.586, 1248 209.375 C 1248 211.123, 1253.388 218.012, 1259.193 223.687 C 1262.235 226.661, 1265.073 228.313, 1268.988 229.390 C 1272.020 230.224, 1276.961 231.603, 1279.968 232.453 C 1287.615 234.616, 1292.743 234.390, 1301.597 231.500 C 1305.809 230.125, 1309.783 229, 1310.429 229 C 1313.047 229, 1324.067 220.734, 1329.823 214.452 L 1335.957 207.757 1337.056 210.629 C 1337.684 212.270, 1337.887 215.667, 1337.530 218.559 C 1336.880 223.811, 1338.096 231.496, 1339.854 233.254 C 1340.538 233.938, 1345.357 233.702, 1354.684 232.527 C 1362.283 231.570, 1373.304 230.468, 1379.175 230.078 C 1385.500 229.658, 1390.492 228.837, 1391.425 228.062 C 1393.396 226.426, 1393.543 218.686, 1391.640 216.782 C 1390.891 216.034, 1386.123 214.834, 1381.043 214.115 C 1366.559 212.065, 1368 219.424, 1368 147.523 L 1368 86.046 1365.297 84.273 C 1362.967 82.744, 1359.644 82.456, 1341.155 82.177 C 1329.363 82, 1318.643 82.124, 1317.332 82.453 C 1310.962 84.052, 1308.804 91.895, 1313.455 96.545 C 1315.674 98.765, 1316.719 99, 1324.383 99 C 1333.515 99, 1335.956 100.113, 1336.048 104.321 C 1336.074 105.520, 1336.070 123.150, 1336.039 143.500 C 1335.983 180.116, 1335.957 180.561, 1333.598 186.363 C 1330.995 192.765, 1321.818 203.004, 1316.833 205.069 C 1315.275 205.715, 1314 206.566, 1314 206.961 C 1314 210.340, 1292.714 212.308, 1285.591 209.588 C 1281.536 208.039, 1280.788 207.190, 1277.316 200.193 L 1273.500 192.500 1273.201 139.024 C 1272.935 91.602, 1272.719 85.348, 1271.296 83.774 C 1269.842 82.168, 1267.390 82, 1245.416 82 C 1224.693 82, 1220.913 82.230, 1219.573 83.570 M 1889 82.707 C 1885.486 83.318, 1884 85.691, 1884 90.691 C 1884 97.935, 1885.917 99, 1898.961 99 C 1908.949 99, 1910.103 99.194, 1911.961 101.189 C 1913.082 102.392, 1914 104.129, 1914 105.048 C 1914 105.967, 1915.350 109.248, 1917 112.340 C 1918.650 115.432, 1920 118.807, 1920 119.840 C 1920 120.873, 1921.286 124.144, 1922.857 127.109 C 1924.429 130.074, 1926.016 134.142, 1926.384 136.149 C 1926.752 138.155, 1927.925 140.906, 1928.991 142.262 C 1930.058 143.618, 1931.413 146.880, 1932.003 149.512 C 1932.592 152.143, 1933.941 155.513, 1935 157 C 1936.059 158.487, 1937.409 161.862, 1938 164.500 C 1938.591 167.138, 1939.952 170.528, 1941.023 172.033 C 1942.095 173.537, 1943.459 177.041, 1944.055 179.819 C 1944.650 182.597, 1945.786 185.408, 1946.579 186.066 C 1947.372 186.723, 1948.746 189.758, 1949.633 192.809 C 1950.520 195.859, 1952.315 200.367, 1953.623 202.827 C 1954.930 205.286, 1956 208.064, 1956 209 C 1956 209.936, 1957.090 212.752, 1958.422 215.257 C 1963.411 224.640, 1964.372 230.561, 1962.653 241.331 C 1961.641 247.676, 1960.250 252.423, 1958.560 255.307 C 1957.152 257.710, 1956 260.252, 1956 260.956 C 1956 262.566, 1950.930 268.381, 1945.760 272.701 C 1942.307 275.585, 1941.100 275.998, 1936.155 275.985 C 1927.933 275.962, 1926.780 274.888, 1930.581 270.794 C 1935.053 265.978, 1937 262.449, 1937 259.160 C 1937 254.787, 1932.582 245.667, 1929.006 242.658 C 1926.172 240.274, 1925.036 240, 1917.988 240 C 1908.812 240, 1906.968 240.635, 1901.227 245.771 C 1897.490 249.115, 1896.834 250.343, 1895.992 255.568 C 1894.602 264.202, 1896.115 272.228, 1899.959 276.606 C 1901.632 278.511, 1903 280.474, 1903 280.967 C 1903 281.461, 1903.902 282.152, 1905.005 282.502 C 1906.108 282.852, 1908.246 284.175, 1909.755 285.441 C 1913.307 288.422, 1927.561 292.312, 1936.500 292.741 C 1942.296 293.019, 1944.941 292.562, 1951.878 290.079 C 1956.486 288.430, 1960.986 286.429, 1961.878 285.632 C 1962.770 284.835, 1965.975 281.750, 1969 278.778 C 1974.023 273.842, 1975.513 271.846, 1979.982 264.077 C 1980.797 262.659, 1982.709 259.436, 1984.232 256.912 C 1985.754 254.389, 1987 251.568, 1987 250.644 C 1987 249.719, 1988.350 246.432, 1990 243.340 C 1991.650 240.248, 1993.002 236.769, 1993.004 235.609 C 1993.006 234.449, 1994.354 230.800, 1996 227.500 C 1997.646 224.200, 1998.994 220.675, 1998.996 219.668 C 1998.998 218.660, 2000.350 214.759, 2002 211 C 2003.650 207.241, 2005 203.304, 2005 202.252 C 2005 201.200, 2006.105 198.156, 2007.456 195.487 C 2008.807 192.819, 2010.394 188.389, 2010.983 185.642 C 2011.572 182.895, 2012.893 179.265, 2013.918 177.574 C 2014.943 175.883, 2016.264 172.192, 2016.854 169.372 C 2017.444 166.552, 2019.068 162.097, 2020.463 159.473 C 2021.858 156.849, 2023 153.486, 2023 152 C 2023 150.514, 2024.142 147.151, 2025.537 144.527 C 2026.932 141.903, 2028.556 137.448, 2029.146 134.628 C 2029.736 131.808, 2031.045 128.136, 2032.056 126.468 C 2033.067 124.800, 2034.345 121.425, 2034.896 118.968 C 2036.250 112.928, 2042.765 99.017, 2044.280 98.929 C 2044.951 98.891, 2049.032 98.920, 2053.348 98.995 C 2063.382 99.170, 2065 97.972, 2065 90.368 C 2065 81.687, 2065.661 81.838, 2029.297 82.196 C 1993.431 82.549, 1993 82.646, 1993 90.368 C 1993 96.890, 1995.312 98.482, 2004.913 98.572 C 2009.150 98.612, 2013.153 98.976, 2013.808 99.381 C 2015.561 100.465, 2015.262 104.041, 2013.078 108.115 C 2012.022 110.087, 2010.690 114.224, 2010.120 117.308 C 2009.550 120.393, 2008.200 124.647, 2007.121 126.762 C 2006.042 128.878, 2004.651 133.408, 2004.031 136.830 C 2003.410 140.251, 2002.057 144.501, 2001.023 146.275 C 1999.989 148.049, 1998.639 152.324, 1998.023 155.775 C 1997.407 159.226, 1996.059 163.501, 1995.027 165.275 C 1993.996 167.049, 1992.685 171.076, 1992.115 174.225 C 1991.544 177.374, 1990.385 181.289, 1989.539 182.925 C 1988.693 184.561, 1987.498 188.285, 1986.883 191.200 C 1985.008 200.097, 1981.975 201.058, 1980.521 193.214 C 1980.142 191.171, 1978.982 188.117, 1977.943 186.426 C 1976.904 184.735, 1975.536 180.910, 1974.902 177.926 C 1974.268 174.942, 1972.912 171.315, 1971.889 169.866 C 1970.866 168.417, 1969.516 164.817, 1968.889 161.866 C 1968.262 158.915, 1966.901 155.299, 1965.864 153.831 C 1964.827 152.363, 1963.559 148.946, 1963.045 146.239 C 1962.532 143.531, 1960.962 139.153, 1959.556 136.509 C 1958.150 133.865, 1956.998 130.757, 1956.996 129.601 C 1956.994 128.445, 1955.646 124.800, 1954 121.500 C 1952.354 118.200, 1950.996 114.600, 1950.982 113.500 C 1950.968 112.400, 1950.066 109.538, 1948.978 107.141 C 1945.416 99.290, 1945.672 99.002, 1956.250 98.985 C 1961.338 98.976, 1966.034 98.630, 1966.687 98.214 C 1968.670 96.954, 1970.169 91.715, 1969.527 88.293 C 1968.305 81.777, 1969.688 81.986, 1928.679 82.136 C 1908.230 82.211, 1890.375 82.468, 1889 82.707 M 693.366 98.265 C 681.623 105.062, 675.653 111.528, 672.101 121.296 C 671.060 124.158, 669.529 128.297, 668.699 130.494 C 665.764 138.261, 664.569 138, 703 138 C 734.297 138, 737.001 137.864, 737.848 136.250 C 739.363 133.363, 737.327 122.375, 734.508 118.227 C 733.129 116.197, 732 113.966, 732 113.270 C 732 111.252, 724.986 104.356, 719.034 100.521 C 713.803 97.152, 713.178 97.001, 704.534 97.015 C 699.210 97.023, 694.624 97.537, 693.366 98.265 M 1122.500 99.555 C 1115.717 104.149, 1113.724 105.942, 1111.122 109.789 C 1109.741 111.830, 1108.036 114.083, 1107.332 114.795 C 1106.628 115.507, 1105.569 117.982, 1104.978 120.295 C 1104.387 122.608, 1102.913 126.750, 1101.702 129.500 C 1099.656 134.146, 1099.500 136.024, 1099.500 156 C 1099.500 175.255, 1099.699 177.866, 1101.406 181 C 1102.454 182.925, 1103.873 186.626, 1104.559 189.224 C 1105.888 194.260, 1107.982 197.426, 1114.711 204.568 C 1119.407 209.553, 1130.126 213.984, 1137.500 213.989 C 1146.687 213.995, 1160.529 206.688, 1164 200 C 1164.713 198.625, 1166.291 196.304, 1167.506 194.843 C 1168.721 193.381, 1169.998 190.415, 1170.344 188.250 C 1170.690 186.085, 1171.989 182.106, 1173.229 179.407 C 1175.304 174.894, 1175.486 173.055, 1175.493 156.500 C 1175.500 139.380, 1175.366 138.125, 1172.750 130.832 C 1171.237 126.615, 1170 122.317, 1170 121.281 C 1170 118.651, 1162.757 107.780, 1159.082 104.894 C 1148.973 96.957, 1150.526 97.527, 1138.044 97.173 C 1126.887 96.857, 1126.366 96.937, 1122.500 99.555 M 2224 100.343 C 2218.207 103.987, 2211.724 110.135, 2210.125 113.500 C 2203.377 127.702, 2202.893 129.076, 2203.190 133.202 L 2203.500 137.500 2237.381 137.763 C 2262.691 137.960, 2271.630 137.722, 2272.716 136.821 C 2274.568 135.284, 2273.637 127.862, 2271.029 123.373 C 2270.030 121.654, 2268.907 118.853, 2268.533 117.149 C 2267.817 113.892, 2259.495 103, 2257.722 103 C 2257.154 103, 2255.071 101.763, 2253.094 100.250 C 2249.814 97.740, 2248.627 97.473, 2239.500 97.192 C 2229.593 96.887, 2229.449 96.916, 2224 100.343 M 363.052 158.015 C 360.056 160.757, 357.131 163.013, 356.552 163.028 C 355.973 163.043, 353.732 164.393, 351.572 166.028 C 349.411 167.663, 347.083 169, 346.399 169 C 345.714 169, 343.881 170.060, 342.327 171.355 C 340.772 172.650, 337.905 174.230, 335.955 174.865 C 329.080 177.105, 320.337 185.040, 318.904 190.341 C 317.668 194.913, 318.214 203.663, 319.936 206.880 C 322.854 212.333, 340.157 212.119, 349.152 206.517 C 357.707 201.190, 363.383 195.936, 367.538 189.500 L 371.411 183.500 371.807 170.721 C 372.226 157.188, 371.734 152.990, 369.731 153.015 C 369.054 153.024, 366.048 155.274, 363.052 158.015"/></svg>